<?xml version="1.0" encoding="UTF-8" standalone="no"?>
<!-- Created with Inkscape (http://www.inkscape.org/) -->

<svg
   width="18.888603mm"
   height="27.114496mm"
   viewBox="0 0 18.888603 27.114496"
   version="1.1"
   id="svg1232"
   inkscape:version="1.2.2 (b0a8486541, 2022-12-01)"
   sodipodi:docname="glyph.svg"
   xmlns:inkscape="http://www.inkscape.org/namespaces/inkscape"
   xmlns:sodipodi="http://sodipodi.sourceforge.net/DTD/sodipodi-0.dtd"
   xmlns="http://www.w3.org/2000/svg"
   xmlns:svg="http://www.w3.org/2000/svg">
  <sodipodi:namedview
     id="namedview1234"
     pagecolor="#ffffff"
     bordercolor="#666666"
     borderopacity="1.0"
     inkscape:showpageshadow="2"
     inkscape:pageopacity="0.0"
     inkscape:pagecheckerboard="0"
     inkscape:deskcolor="#d1d1d1"
     inkscape:document-units="mm"
     showgrid="false"
     inkscape:zoom="0.914906"
     inkscape:cx="585.85253"
     inkscape:cy="232.2643"
     inkscape:window-width="3374"
     inkscape:window-height="1371"
     inkscape:window-x="1146"
     inkscape:window-y="512"
     inkscape:window-maximized="1"
     inkscape:current-layer="layer1" />
  <defs
     id="defs1229" />
  <g
     inkscape:label="Layer 1"
     inkscape:groupmode="layer"
     id="layer1"
     transform="translate(49.931157,-87.081504)">
    <rect
       x="-41.266052"
       y="96.143478"
       width="1.55575"
       height="12.430124"
       id="rect187"
       style="stroke-width:0.264583" />
    <path
       d="m -32.550678,102.75277 c -0.404813,-2.06904 -0.896938,-4.074579 -1.4605,-5.963704 -0.53975,-1.881188 -1.164167,-3.577167 -1.857375,-5.045604 -0.685271,-1.471084 -1.441979,-2.640542 -2.248959,-3.476625 -0.769937,-0.796396 -1.55575,-1.185333 -2.405062,-1.185333 -0.775229,0 -1.505479,0.375708 -2.227792,1.145645 -0.764646,0.817563 -1.500187,1.952625 -2.185458,3.381375 -0.672042,1.423459 -1.309688,3.087688 -1.894417,4.947709 -0.563562,1.862666 -1.066271,3.857627 -1.494895,5.926667 -0.428625,2.05317 -0.783167,4.14337 -1.055688,6.21242 -0.251354,1.91293 -0.433917,3.76237 -0.550333,5.50068 h 1.561041 c 0.09525,-1.60866 0.248709,-3.31787 0.460375,-5.08529 0.251354,-1.9341 0.563563,-3.88144 0.928688,-5.78908 0.365125,-1.905 0.780521,-3.738564 1.23825,-5.445127 0.481541,-1.73302 0.992187,-3.291416 1.518708,-4.632854 0.534458,-1.359958 1.090083,-2.44475 1.656292,-3.230562 0.650875,-0.894292 1.338791,-1.344084 2.045229,-1.344084 0.732896,0 1.423458,0.455084 2.050521,1.349375 0.584729,0.801688 1.153583,1.899709 1.688041,3.259667 0.529167,1.346729 1.02923,2.905125 1.484313,4.632854 0.455083,1.719792 0.870479,3.563941 1.23825,5.479521 0.365125,1.905 0.674687,3.8391 0.926041,5.7494 0.232834,1.76212 0.396875,3.46075 0.494771,5.05618 h 1.598084 c -0.0979,-1.62983 -0.272521,-3.39725 -0.52123,-5.25727 -0.248708,-2.03464 -0.582083,-4.11427 -0.986895,-6.18596"
       id="path189"
       style="stroke-width:0.264583" />
  </g>
</svg>
