<?xml version="1.0" encoding="UTF-8"?><svg id="Layer_2" xmlns="http://www.w3.org/2000/svg" viewBox="0 0 195.61 163.35"><defs><style>.cls-1{fill:#4687e6;}.cls-2{fill:#222080;}</style></defs><g id="Layer_1-2"><g><g><path class="cls-2" d="M140.38,49c-1.47-5.77-4.04-11.2-7.57-16v1.63c0,1.38-1.12,2.5-2.5,2.5s-2.5-1.12-2.5-2.5v-6.84h-6.82c-1.24,0-2.25-1.01-2.26-2.25-.02-1.23,.97-2.24,2.2-2.26,.02,0,.04,0,.06,0h2.27c-20.62-15.6-49.99-11.52-65.58,9.1-15.6,20.62-11.52,49.99,9.1,65.58,20.62,15.6,49.99,11.52,65.58-9.1,6.15-8.13,9.48-18.06,9.48-28.25,0-3.92-.48-7.82-1.46-11.61Zm-45.37,44.27c-18.04,0-32.66-14.61-32.67-32.65,0-18.04,14.61-32.66,32.65-32.67,18.04,0,32.66,14.61,32.67,32.65h0c-.02,18.04-14.62,32.65-32.65,32.67Z"/><path class="cls-1" d="M130.31,0c-10.15,0-19.33,6.02-23.4,15.32-1.42,3.22-2.15,6.7-2.14,10.22,0,1.34,.11,2.68,.31,4,1.75,10.86,10.24,19.4,21.1,21.19,1.38,.23,2.78,.35,4.18,.35,14.11-.01,25.53-11.46,25.51-25.57S144.42-.01,130.31,0Zm9.34,27.79h-6.84v6.84c0,1.38-1.12,2.5-2.5,2.5s-2.5-1.12-2.5-2.5v-6.84h-6.82c-1.24,0-2.25-1.01-2.26-2.25-.02-1.23,.97-2.24,2.2-2.26,.02,0,.04,0,.06,0h6.83v-6.83c0-1.38,1.12-2.5,2.5-2.5s2.5,1.12,2.5,2.5v6.83h6.84c1.25,.08,2.19,1.16,2.1,2.41-.08,1.13-.97,2.03-2.1,2.1h0Z"/></g><path class="cls-2" d="M15.51,123.45c-9.32,0-15.51,7.2-15.51,15.82s6.19,15.83,15.51,15.83,15.5-7.2,15.5-15.83-6.19-15.82-15.5-15.82Zm0,27.66c-7.11,0-11.1-5.55-11.1-11.84s4-11.83,11.1-11.83,11.1,5.55,11.1,11.83-3.99,11.84-11.1,11.84Z"/><path class="cls-2" d="M45.48,134.09c-2.93-.05-5.67,1.44-7.2,3.94v-1.56c.07-1.14-.79-2.12-1.94-2.2-.06,0-.12,0-.17,0-1.1-.04-2.03,.82-2.08,1.92,0,.08,0,.16,0,.24v24.91c.08,1.19,1.11,2.09,2.3,2.01,1.08-.07,1.93-.93,2.01-2.01v-10.19c1.49,2.48,4.18,4,7.07,4,5.27,0,9.59-4.18,9.59-10.51s-4.3-10.55-9.59-10.55Zm-.87,17.43c-3.72,0-6.2-3.26-6.2-6.93s2.48-6.92,6.2-6.92,6.16,2.79,6.16,6.92-2.45,6.93-6.16,6.93h0Z"/><path class="cls-2" d="M76.63,144.68c0-5.87-3.76-10.55-9.54-10.55-5.58-.12-10.2,4.31-10.32,9.89,0,.19,0,.38,0,.57,0,5.74,3.63,10.51,10.46,10.51,3.07,.07,6.03-1.14,8.17-3.35,.33-.33,.52-.77,.55-1.24,.05-.96-.69-1.78-1.65-1.83-.03,0-.07,0-.1,0-.55,.03-1.06,.28-1.42,.69-1.36,1.5-3.3,2.34-5.32,2.31-3.81,0-6-2.39-6.2-5.55h13.72c1.24-.02,1.65-.76,1.65-1.45Zm-15.27-2c.31-2.92,2.79-5.13,5.73-5.09,2.89,0,5.29,2.21,5.55,5.09h-11.28Z"/><path class="cls-2" d="M88.77,134.09c5.2-.1,9.5,4.04,9.6,9.24,0,.12,0,.24,0,.35v9.08c-.08,1.19-1.11,2.09-2.3,2.01-1.08-.07-1.93-.93-2.01-2.01v-9.59c0-2.93-2.37-5.3-5.3-5.3s-5.3,2.37-5.3,5.3v9.59c-.08,1.19-1.11,2.09-2.3,2.01-1.08-.07-1.93-.93-2.01-2.01v-9.08c-.11-5.18,4-9.48,9.18-9.59,.15,0,.29,0,.44,0Z"/><path class="cls-1" d="M130.57,151.2l-11.74-26.1c-.4-.94-1.37-1.52-2.39-1.42-1.03-.07-1.98,.52-2.38,1.47l-11.74,26.1c-.18,.34-.28,.72-.28,1.1-.01,1.43,1.14,2.6,2.57,2.61,.03,0,.06,0,.09,0,1.02,.02,1.94-.57,2.34-1.51l2.61-5.6h13.58l2.62,5.6c.38,.95,1.32,1.56,2.34,1.51,1.43,.04,2.62-1.09,2.66-2.52,0-.03,0-.06,0-.09,0-.4-.09-.8-.28-1.15Zm-18.9-8.31l4.77-11.65,4.77,11.65h-9.54Z"/><path class="cls-1" d="M135.77,154.91c-1.57,0-2.84-1.27-2.85-2.84v-25.6c.04-1.55,1.3-2.79,2.85-2.79,1.54,.02,2.77,1.27,2.75,2.81,0,.01,0,.02,0,.03v25.6c0,1.53-1.22,2.77-2.75,2.79Z"/><path class="cls-1" d="M163.97,141.34c3.49-1.52,5.05-4.59,5.05-8.17,0-5.41-3.26-9.17-10.87-9.17h-11.79c-1.53-.02-2.78,1.21-2.8,2.74,0,.02,0,.03,0,.05v25.33c0,1.55,1.25,2.8,2.8,2.8s2.8-1.25,2.8-2.8v-9.77h9.22l5.36,11c.42,.98,1.42,1.58,2.48,1.51,1.5,.05,2.75-1.11,2.81-2.61,.02-.48-.1-.96-.33-1.39l-4.73-9.52Zm-5-3.81h-9.77v-8.4h9.77c3.07,0,4.45,2.07,4.45,4.09,.07,2.32-1.76,4.25-4.08,4.32-.14,0-.27,0-.41,0h.04Z"/><path class="cls-1" d="M192.95,154.55h-17.18c-1.56,.01-2.83-1.24-2.85-2.8v-25c.04-1.54,1.31-2.77,2.85-2.75h16.51c1.42-.04,2.61,1.07,2.66,2.5,0,.02,0,.05,0,.07,0,1.45-1.18,2.62-2.63,2.61-.01,0-.02,0-.03,0h-13.78v7.29h11.6c1.44,0,2.61,1.17,2.61,2.61,0,0,0,0,0,.01,.01,1.42-1.13,2.58-2.55,2.59-.02,0-.04,0-.06,0h-11.6v7.7h14.45c1.45-.02,2.64,1.13,2.66,2.58,0,.01,0,.03,0,.04,0,1.42-1.16,2.58-2.59,2.57-.02,0-.05,0-.07,0v-.02Z"/></g></g></svg>