<svg width="159" height="30" viewBox="0 0 159 30" fill="none" xmlns="http://www.w3.org/2000/svg">
<path d="M39.2584 10.1821V9.31264C39.0096 9.51463 38.5588 9.62295 36.9136 9.93325C35.9036 10.1352 35.2684 10.4778 35.2684 11.3004C35.2684 12 35.8129 12.5416 36.7584 12.5416C38.3568 12.5416 39.2584 11.517 39.2584 10.1821ZM33.7461 11.3794C33.7461 9.99765 34.7854 9.22189 36.5242 8.92623C38.9159 8.49004 39.2584 8.38173 39.2584 7.55913C39.2584 6.62822 38.3743 6.27108 37.3644 6.27108C36.1524 6.27108 35.2215 6.92389 35.2215 8.21195L33.9159 7.69965C34.0857 6.16277 35.5318 5.12354 37.3644 5.12354C39.4136 5.12354 40.6723 6.07202 40.6723 7.82553V11.9415L40.9212 13.4461H39.6799L39.3082 12.3747C38.7022 13.2441 37.6308 13.6803 36.451 13.6803C34.8644 13.6774 33.7461 12.7611 33.7461 11.3794Z" fill="#000000"/>
<path d="M44.4129 2.0293H42.9844V13.4432H44.4129V2.0293Z" fill="#000000"/>
<path d="M56.8633 8.7535V8.73886C56.8633 7.26345 55.9323 6.36181 54.5038 6.36181C53.2918 6.36181 52.2672 7.16977 52.0506 8.7535H56.8633ZM50.543 9.42094C50.543 6.95314 52.2204 5.10303 54.533 5.10303C56.9393 5.10303 58.4001 6.79507 58.4001 9.26579C58.4001 9.45314 58.4001 9.65514 58.3679 9.87176H52.0155C52.1852 11.5784 53.2743 12.4332 54.6706 12.4332C55.9119 12.4332 56.752 11.9209 57.2175 10.8495L58.2889 11.7658C57.56 13.0861 56.0992 13.6745 54.6384 13.6745C52.1736 13.6774 50.543 11.9209 50.543 9.42094Z" fill="#000000"/>
<path d="M60.2939 5.36943H61.7225V7.79039L62.1411 6.01931C62.5305 5.58313 63.1657 5.11768 64.3923 5.11768C66.3478 5.11768 67.4661 6.35889 67.4661 8.411V13.4432H66.0375V8.6774C66.0375 7.16978 65.3701 6.42622 64.0644 6.42622C62.6212 6.42622 61.7196 7.43617 61.7196 9.00233V13.4432H60.291V5.36943H60.2939Z" fill="#000000"/>
<path d="M76.9111 5.36943H78.3397V7.79039L78.7583 6.01931C79.1476 5.58313 79.7829 5.11768 81.0095 5.11768C82.965 5.11768 84.0833 6.35889 84.0833 8.411V13.4432H82.6547V8.6774C82.6547 7.16978 81.9872 6.42622 80.6816 6.42622C79.2384 6.42622 78.3368 7.43617 78.3368 9.00233V13.4432H76.9082V5.36943H76.9111Z" fill="#000000"/>
<path d="M86.9715 11.2535V6.64286H85.543V5.36944H86.9715V3.44321L88.4001 2.37178V5.36944H90.7128V6.64286H88.4001V11.0691C88.4001 12.1727 88.8509 12.3425 89.7204 12.3425C89.937 12.3425 90.3263 12.281 90.5576 12.2342V13.493C90.3088 13.5866 89.735 13.6481 89.5008 13.6481C87.8732 13.6452 86.9715 12.9924 86.9715 11.2535Z" fill="#000000"/>
<path d="M98.2929 8.7535V8.73886C98.2929 7.26345 97.362 6.36181 95.9334 6.36181C94.7215 6.36181 93.6969 7.16977 93.4803 8.7535H98.2929ZM91.9727 9.42094C91.9727 6.95314 93.6501 5.10303 95.9627 5.10303C98.369 5.10303 99.8298 6.79507 99.8298 9.26579C99.8298 9.45314 99.8298 9.65514 99.7976 9.87176H93.4451C93.6149 11.5784 94.7039 12.4332 96.1003 12.4332C97.3415 12.4332 98.1817 11.9209 98.6471 10.8495L99.7186 11.7658C98.9897 13.0861 97.5289 13.6745 96.0681 13.6745C93.6061 13.6774 91.9727 11.9209 91.9727 9.42094Z" fill="#000000"/>
<path d="M103.231 2.0293H101.803V13.4432H103.231V2.0293Z" fill="#000000"/>
<path d="M107.098 2.0293H105.67V13.4432H107.098V2.0293Z" fill="#000000"/>
<path d="M120.187 9.21895C120.187 7.62059 119.177 6.40865 117.485 6.40865C115.729 6.40865 114.689 7.64986 114.689 9.21895C114.689 10.788 115.729 12.0146 117.485 12.0146C119.177 12.0146 120.187 10.788 120.187 9.21895ZM113.308 14.6229L114.552 13.7828C114.97 15.103 115.919 15.7705 117.377 15.7705C119.086 15.7705 120.14 14.7605 120.14 13.1622V10.5539L119.596 12.5269C119.271 12.8372 118.384 13.3202 117.251 13.3202C114.798 13.3202 113.229 11.5023 113.229 9.22188C113.229 6.92387 114.798 5.10596 117.251 5.10596C118.51 5.10596 119.487 5.65046 120.14 6.47306V5.36942H121.569V13.2412C121.569 15.5539 119.953 17.0146 117.377 17.0146C115.295 17.0146 113.928 16.2067 113.308 14.6229Z" fill="#000000"/>
<path d="M129.674 8.7535V8.73886C129.674 7.26345 128.743 6.36181 127.314 6.36181C126.102 6.36181 125.078 7.16977 124.861 8.7535H129.674ZM123.354 9.42094C123.354 6.95314 125.031 5.10303 127.344 5.10303C129.75 5.10303 131.211 6.79507 131.211 9.26579C131.211 9.45314 131.211 9.65514 131.178 9.87176H124.826C124.996 11.5784 126.085 12.4332 127.481 12.4332C128.722 12.4332 129.563 11.9209 130.028 10.8495L131.099 11.7658C130.37 13.0861 128.91 13.6745 127.449 13.6745C124.984 13.6774 123.354 11.9209 123.354 9.42094Z" fill="#000000"/>
<path d="M133.104 5.36943H134.533V7.79039L134.952 6.01931C135.341 5.58313 135.976 5.11768 137.203 5.11768C139.158 5.11768 140.277 6.35889 140.277 8.411V13.4432H138.848V8.6774C138.848 7.16978 138.181 6.42622 136.875 6.42622C135.432 6.42622 134.53 7.43617 134.53 9.00233V13.4432H133.102V5.36943H133.104Z" fill="#000000"/>
<path d="M141.973 9.39168C141.973 6.87704 143.773 5.10596 146.244 5.10596C147.921 5.10596 149.35 6.02223 149.862 7.28101L148.603 8.05677C148.308 6.99998 147.315 6.42622 146.244 6.42622C144.566 6.42622 143.433 7.60596 143.433 9.39168C143.433 11.192 144.505 12.3571 146.244 12.3571C147.377 12.3571 148.372 11.6575 148.65 10.7412L149.862 11.517C149.317 12.7582 147.889 13.6745 146.244 13.6745C143.726 13.6774 141.973 11.9678 141.973 9.39168Z" fill="#000000"/>
<path d="M157.391 8.7535V8.73886C157.391 7.26345 156.46 6.36181 155.031 6.36181C153.819 6.36181 152.795 7.16977 152.578 8.7535H157.391ZM151.07 9.42094C151.07 6.95314 152.748 5.10303 155.06 5.10303C157.467 5.10303 158.927 6.79507 158.927 9.26579C158.927 9.45314 158.927 9.65514 158.895 9.87176H152.543C152.713 11.5784 153.802 12.4332 155.198 12.4332C156.439 12.4332 157.279 11.9209 157.745 10.8495L158.816 11.7658C158.087 13.0861 156.627 13.6745 155.166 13.6745C152.701 13.6774 151.07 11.9209 151.07 9.42094Z" fill="#000000"/>
<path d="M48.8942 2.0293H47.2168V3.6745H48.8942V2.0293Z" fill="#000000"/>
<path d="M47.9372 5.36934H47.34H46.2598V7.01454H47.34V13.4431H48.7686V5.36934H47.9372Z" fill="#000000"/>
<path d="M111.531 2H109.854V3.6452H111.531V2Z" fill="#000000"/>
<path d="M110.572 5.3372H109.975H108.895V6.9824H109.975V13.411H111.403V5.3372H110.572Z" fill="#000000"/>
<path d="M74.7536 2.0293H73.0762V3.6745H74.7536V2.0293Z" fill="#000000"/>
<path d="M73.7965 5.36934H73.1993H72.1191V7.01454H73.1993V13.4431H74.6279V5.36934H73.7965Z" fill="#000000"/>
<path d="M102.535 27.2725C101.906 27.2725 101.383 27.1497 100.968 26.9042C100.552 26.665 100.25 26.3125 100.061 25.8467L100.902 25.2801C101.027 25.6578 101.226 25.9442 101.496 26.1394C101.773 26.3345 102.123 26.4321 102.545 26.4321C103.042 26.4321 103.432 26.2936 103.715 26.0166C104.005 25.7459 104.15 25.3777 104.15 24.9119V23.3444L103.819 24.5719C103.693 24.6789 103.508 24.7797 103.262 24.8741C103.017 24.9622 102.749 25.0063 102.46 25.0063C101.975 25.0063 101.547 24.8993 101.175 24.6852C100.81 24.4649 100.527 24.1659 100.326 23.7882C100.124 23.4105 100.023 22.9919 100.023 22.5324C100.023 22.0665 100.124 21.6448 100.326 21.2671C100.527 20.8831 100.81 20.5809 101.175 20.3606C101.547 20.1403 101.975 20.0301 102.46 20.0301C102.818 20.0301 103.139 20.0962 103.423 20.2284C103.706 20.3606 103.948 20.5495 104.15 20.795V20.1906H105.132V24.978C105.132 25.4438 105.025 25.8498 104.811 26.196C104.603 26.5423 104.304 26.8066 103.914 26.9892C103.523 27.178 103.064 27.2725 102.535 27.2725ZM102.63 24.1187C102.938 24.1187 103.209 24.0495 103.442 23.911C103.681 23.7725 103.863 23.5836 103.989 23.3444C104.121 23.0989 104.188 22.8282 104.188 22.5324C104.188 22.0539 104.043 21.6668 103.753 21.3709C103.47 21.0688 103.095 20.9177 102.63 20.9177C102.145 20.9177 101.758 21.0688 101.468 21.3709C101.179 21.6731 101.034 22.0602 101.034 22.5324C101.034 22.8345 101.097 23.1052 101.223 23.3444C101.355 23.5836 101.541 23.7725 101.78 23.911C102.025 24.0495 102.309 24.1187 102.63 24.1187Z" fill="#000000"/>
<path d="M94.6172 20.1906H95.5992V21.6448L95.8636 20.5589C96.1783 20.2064 96.6221 20.0301 97.195 20.0301C97.7867 20.0301 98.2431 20.2095 98.5641 20.5683C98.8852 20.9272 99.0457 21.4276 99.0457 22.0697V25.1007H98.0637V22.2585C98.0637 21.8116 97.9693 21.478 97.7804 21.2576C97.5979 21.0373 97.3146 20.9272 96.9306 20.9272C96.5214 20.9272 96.1972 21.0625 95.958 21.3332C95.7188 21.6039 95.5992 21.9721 95.5992 22.4379V25.1007H94.6172V20.1906Z" fill="#000000"/>
<path d="M92.3027 20.1906H93.2848V25.1007H92.3027V20.1906ZM92.2461 18.1605H93.3509V19.237H92.2461V18.1605Z" fill="#000000"/>
<path d="M83.7832 20.1906H84.7652V21.607L85.0485 20.4739C85.3444 20.1781 85.7283 20.0301 86.2005 20.0301C86.6726 20.0301 87.0566 20.1749 87.3524 20.4645C87.6546 20.754 87.8246 21.1349 87.8623 21.607L88.1173 20.4739C88.2369 20.3543 88.3943 20.2504 88.5894 20.1623C88.7908 20.0742 89.0238 20.0301 89.2881 20.0301C89.8232 20.0301 90.245 20.1969 90.5534 20.5306C90.8619 20.8579 91.0161 21.3269 91.0161 21.9375V25.1007H90.0341V22.1169C90.0341 21.3237 89.7005 20.9272 89.0332 20.9272C88.6618 20.9272 88.3785 21.0562 88.1834 21.3143C87.9882 21.5661 87.8907 21.9218 87.8907 22.3813V25.1007H86.9086V22.1263C86.9086 21.7486 86.83 21.4559 86.6726 21.2482C86.5152 21.0342 86.2634 20.9272 85.9172 20.9272C85.5458 20.9272 85.2625 21.0593 85.0674 21.3237C84.8785 21.5881 84.7778 21.9564 84.7652 22.4285V25.1007H83.7832V20.1906Z" fill="#000000"/>
<path d="M79.4365 25.2423C78.9518 25.2423 78.5206 25.129 78.1429 24.9024C77.7652 24.6758 77.4725 24.3642 77.2647 23.9676C77.057 23.571 76.9531 23.1304 76.9531 22.6457C76.9531 22.1547 77.057 21.7109 77.2647 21.3143C77.4725 20.9177 77.7652 20.6061 78.1429 20.3795C78.5206 20.1466 78.9518 20.0301 79.4365 20.0301C79.8205 20.0301 80.1604 20.1025 80.4563 20.2473C80.7584 20.3858 81.0102 20.5809 81.2117 20.8327V20.1906H82.1937V22.9478L82.9302 25.1007H81.8915L81.2872 23.2594L81.2022 24.4681C80.7742 24.9843 80.1856 25.2423 79.4365 25.2423ZM79.6065 24.3453C79.9212 24.3453 80.2045 24.2729 80.4563 24.1281C80.7081 23.9834 80.9032 23.7819 81.0417 23.5238C81.1802 23.2594 81.2494 22.9667 81.2494 22.6457C81.2494 22.3183 81.1802 22.0256 81.0417 21.7675C80.9032 21.5031 80.7081 21.2954 80.4563 21.1443C80.2045 20.9932 79.9212 20.9177 79.6065 20.9177C79.2791 20.9177 78.9895 20.9932 78.7377 21.1443C78.4922 21.2954 78.3002 21.5031 78.1618 21.7675C78.0296 22.0256 77.9635 22.3183 77.9635 22.6457C77.9635 22.9667 78.0296 23.2563 78.1618 23.5144C78.3002 23.7725 78.4922 23.9771 78.7377 24.1281C78.9895 24.2729 79.2791 24.3453 79.6065 24.3453Z" fill="#000000"/>
<path d="M73.8574 25.2423C73.3538 25.2423 72.9131 25.1353 72.5354 24.9213C72.1578 24.701 71.865 24.3957 71.6573 24.0054C71.4496 23.6088 71.3457 23.1587 71.3457 22.6551C71.3457 22.1578 71.4496 21.7109 71.6573 21.3143C71.8713 20.9114 72.164 20.5967 72.5354 20.37C72.9069 20.1434 73.3255 20.0301 73.7913 20.0301C74.2697 20.0301 74.6852 20.1371 75.0377 20.3512C75.3965 20.5589 75.6703 20.8548 75.8592 21.2388C76.048 21.6227 76.1425 22.0634 76.1425 22.5607C76.1425 22.7244 76.1362 22.8566 76.1236 22.9573H72.3749C72.4253 23.4294 72.5858 23.7882 72.8565 24.0337C73.1272 24.2792 73.4671 24.402 73.8763 24.402C74.2414 24.402 74.5435 24.3264 74.7827 24.1754C75.022 24.0243 75.2108 23.7945 75.3493 23.4861L76.0764 24.1187C75.856 24.4901 75.5476 24.7702 75.151 24.9591C74.7607 25.1479 74.3295 25.2423 73.8574 25.2423ZM75.0943 22.2208V22.2113C75.0943 21.8022 74.9747 21.478 74.7355 21.2388C74.4963 20.9932 74.1753 20.8705 73.7724 20.8705C73.4136 20.8705 73.1083 20.987 72.8565 21.2199C72.6047 21.4465 72.4473 21.7801 72.3844 22.2208H75.0943Z" fill="#000000"/>
<path d="M67.9414 20.1907H68.9234V21.8431L69.1878 20.5967C69.32 20.4582 69.4868 20.3386 69.6883 20.2379C69.896 20.1372 70.1352 20.0868 70.4059 20.0868C70.5444 20.0868 70.6734 20.1025 70.793 20.134V21.1255C70.6105 21.0751 70.4437 21.0499 70.2926 21.0499C69.8708 21.0499 69.5372 21.1884 69.2917 21.4654C69.0462 21.7424 68.9234 22.161 68.9234 22.7212V25.1007H67.9414V20.1907Z" fill="#000000"/>
<path d="M66.1165 25.2235C65.5814 25.2235 65.1817 25.1039 64.9173 24.8647C64.6529 24.6255 64.5207 24.2415 64.5207 23.7127V21.0499H63.6426V20.1907H64.5207V19.0953L65.5027 18.3494V20.1907H66.9002V21.0499H65.5027V23.5805C65.5027 23.8826 65.5594 24.0841 65.6727 24.1848C65.786 24.2792 65.9812 24.3264 66.2581 24.3264C66.4533 24.3264 66.639 24.3044 66.8152 24.2603V25.1291C66.746 25.1542 66.6327 25.1763 66.4753 25.1951C66.3242 25.214 66.2046 25.2235 66.1165 25.2235Z" fill="#000000"/>
<path d="M60.3109 25.2423C59.5492 25.2423 58.9134 25.0472 58.4035 24.6569C57.8999 24.2666 57.6072 23.7316 57.5254 23.0517L58.4885 22.589C58.4885 23.1367 58.649 23.571 58.9701 23.8921C59.2911 24.2068 59.7381 24.3642 60.3109 24.3642C60.783 24.3642 61.167 24.2603 61.4629 24.0526C61.765 23.8449 61.9161 23.5647 61.9161 23.2122C61.9161 22.9478 61.8343 22.737 61.6706 22.5796C61.5132 22.4222 61.3118 22.3058 61.0663 22.2302C60.8271 22.1547 60.5029 22.0791 60.0937 22.0036C59.5775 21.9029 59.1589 21.7959 58.8379 21.6826C58.5231 21.5692 58.2525 21.3835 58.0258 21.1254C57.7992 20.8611 57.6859 20.4991 57.6859 20.0396C57.6859 19.6304 57.8024 19.2716 58.0353 18.9631C58.2682 18.6547 58.5798 18.4186 58.9701 18.2549C59.3604 18.085 59.7853 18 60.2448 18C60.7421 18 61.1796 18.0881 61.5573 18.2644C61.9413 18.4406 62.2435 18.6799 62.4638 18.982C62.6904 19.2779 62.8226 19.6084 62.8604 19.9735L61.9256 20.3701C61.9256 19.9294 61.7745 19.5706 61.4723 19.2936C61.1702 19.0166 60.761 18.8781 60.2448 18.8781C59.7916 18.8781 59.4233 18.9757 59.14 19.1709C58.8568 19.366 58.7151 19.6335 58.7151 19.9735C58.7151 20.2127 58.7907 20.4047 58.9418 20.5495C59.0991 20.6942 59.2911 20.8044 59.5177 20.8799C59.7507 20.9492 60.0686 21.0247 60.4714 21.1066C61.0002 21.2136 61.4283 21.3269 61.7556 21.4465C62.0892 21.5598 62.3725 21.7549 62.6054 22.0319C62.8383 22.3026 62.9548 22.6772 62.9548 23.1556C62.9548 23.5836 62.8415 23.955 62.6149 24.2698C62.3882 24.5845 62.0735 24.8269 61.6706 24.9968C61.2677 25.1605 60.8145 25.2423 60.3109 25.2423Z" fill="#000000"/>
<path d="M53.3857 25.2423C52.901 25.2423 52.4698 25.129 52.0921 24.9024C51.7144 24.6758 51.4217 24.3642 51.2139 23.9676C51.0062 23.571 50.9023 23.1304 50.9023 22.6457C50.9023 22.1547 51.0062 21.7109 51.2139 21.3143C51.4217 20.9177 51.7144 20.6061 52.0921 20.3795C52.4698 20.1466 52.901 20.0301 53.3857 20.0301C53.7697 20.0301 54.1096 20.1025 54.4055 20.2473C54.7076 20.3858 54.9594 20.5809 55.1609 20.8327V20.1906H56.1429V22.9478L56.8794 25.1007H55.8407L55.2364 23.2594L55.1514 24.4681C54.7234 24.9843 54.1348 25.2423 53.3857 25.2423ZM53.5557 24.3453C53.8704 24.3453 54.1537 24.2729 54.4055 24.1281C54.6573 23.9834 54.8524 23.7819 54.9909 23.5238C55.1294 23.2594 55.1987 22.9667 55.1987 22.6457C55.1987 22.3183 55.1294 22.0256 54.9909 21.7675C54.8524 21.5031 54.6573 21.2954 54.4055 21.1443C54.1537 20.9932 53.8704 20.9177 53.5557 20.9177C53.2283 20.9177 52.9388 20.9932 52.687 21.1443C52.4415 21.2954 52.2495 21.5031 52.111 21.7675C51.9788 22.0256 51.9127 22.3183 51.9127 22.6457C51.9127 22.9667 51.9788 23.2563 52.111 23.5144C52.2495 23.7725 52.4415 23.9771 52.687 24.1281C52.9388 24.2729 53.2283 24.3453 53.5557 24.3453Z" fill="#000000"/>
<path d="M49.3704 25.2235C48.8353 25.2235 48.4356 25.1039 48.1712 24.8647C47.9068 24.6255 47.7746 24.2415 47.7746 23.7127V21.0499H46.8965V20.1907H47.7746V19.0953L48.7566 18.3494V20.1907H50.1541V21.0499H48.7566V23.5805C48.7566 23.8826 48.8133 24.0841 48.9266 24.1848C49.0399 24.2792 49.2351 24.3264 49.512 24.3264C49.7072 24.3264 49.8929 24.3044 50.0691 24.2603V25.1291C49.9999 25.1542 49.8866 25.1763 49.7292 25.1951C49.5781 25.214 49.4585 25.2235 49.3704 25.2235Z" fill="#000000"/>
<path d="M42.9755 25.2423C42.4908 25.2423 42.0596 25.129 41.6819 24.9024C41.3042 24.6758 41.0115 24.3642 40.8038 23.9676C40.5961 23.571 40.4922 23.1304 40.4922 22.6457C40.4922 22.1547 40.5961 21.7109 40.8038 21.3143C41.0115 20.9177 41.3042 20.6061 41.6819 20.3795C42.0596 20.1466 42.4908 20.0301 42.9755 20.0301C43.3595 20.0301 43.6995 20.1025 43.9953 20.2473C44.2975 20.3858 44.5493 20.5809 44.7507 20.8327V20.1906H45.7327V22.9478L46.4693 25.1007H45.4306L44.8263 23.2594L44.7413 24.4681C44.3132 24.9843 43.7246 25.2423 42.9755 25.2423ZM43.1455 24.3453C43.4603 24.3453 43.7435 24.2729 43.9953 24.1281C44.2471 23.9834 44.4423 23.7819 44.5808 23.5238C44.7193 23.2594 44.7885 22.9667 44.7885 22.6457C44.7885 22.3183 44.7193 22.0256 44.5808 21.7675C44.4423 21.5031 44.2471 21.2954 43.9953 21.1443C43.7435 20.9932 43.4603 20.9177 43.1455 20.9177C42.8182 20.9177 42.5286 20.9932 42.2768 21.1443C42.0313 21.2954 41.8393 21.5031 41.7008 21.7675C41.5686 22.0256 41.5025 22.3183 41.5025 22.6457C41.5025 22.9667 41.5686 23.2563 41.7008 23.5144C41.8393 23.7725 42.0313 23.9771 42.2768 24.1281C42.5286 24.2729 42.8182 24.3453 43.1455 24.3453Z" fill="#000000"/>
<path d="M34 18.1605H36.4645C37.4843 18.1605 38.2774 18.4532 38.844 19.0387C39.4168 19.6178 39.7032 20.4519 39.7032 21.5409C39.7032 22.2711 39.5742 22.9038 39.3161 23.4388C39.058 23.9739 38.6834 24.3862 38.1924 24.6758C37.7077 24.9591 37.1317 25.1007 36.4645 25.1007H34V18.1605ZM36.3795 24.1848C37.0971 24.1848 37.6605 23.9519 38.0697 23.4861C38.4852 23.0202 38.6929 22.3718 38.6929 21.5409C38.6929 20.71 38.4915 20.0931 38.0886 19.6902C37.6857 19.281 37.116 19.0764 36.3795 19.0764H35.0198V24.1848H36.3795Z" fill="#000000"/>
<path d="M11.3112 10.0264H9.58984V23.7793H11.3112V10.0264Z" fill="#000000"/>
<path d="M19.2301 17.339C18.7822 15.0498 18.2377 12.8308 17.6142 10.7406C17.017 8.65925 16.3261 6.78278 15.5591 5.15808C14.8009 3.53044 13.9637 2.23654 13.0709 1.31148C12.219 0.430331 11.3496 0 10.4099 0C9.55213 0 8.74415 0.415691 7.94497 1.26756C7.09895 2.17213 6.28513 3.42799 5.52693 5.00879C4.78337 6.58373 4.07786 8.42506 3.43091 10.483C2.80737 12.5439 2.25116 14.7512 1.77692 17.0404C1.30268 19.3121 0.910409 21.6247 0.608887 23.9139C0.330783 26.0304 0.128806 28.0767 0 30H1.72717C1.83256 28.2201 2.00235 26.329 2.23654 24.3735C2.51464 22.2336 2.86008 20.079 3.26406 17.9684C3.66804 15.8607 4.12762 13.832 4.63406 11.9438C5.16685 10.0264 5.73184 8.30211 6.31439 6.81792C6.90572 5.31323 7.52341 4.113 8.14694 3.24356C8.86708 2.2541 9.62824 1.75644 10.4099 1.75644C11.2207 1.75644 11.9848 2.25995 12.6786 3.24942C13.3255 4.13642 13.9549 5.35129 14.5462 6.85598C15.1317 8.34602 15.685 10.0703 16.1885 11.9818C16.6921 13.8847 17.1516 15.9251 17.5585 18.0445C17.9625 20.1522 18.305 22.2922 18.5831 24.4057C18.8407 26.3554 19.0222 28.2348 19.1306 30H20.8987C20.7904 28.1967 20.5972 26.2412 20.322 24.1833C20.0469 21.9321 19.6809 19.6311 19.2301 17.339Z" fill="#000000"/>
</svg>
