<?xml version="1.0"?>


<svg width="64mm" height="64mm" viewBox="0 0 64 64" version="1.1" id="svg2161" xmlns:inkscape="http://www.inkscape.org/namespaces/inkscape" xmlns:sodipodi="http://sodipodi.sourceforge.net/DTD/sodipodi-0.dtd" xmlns="http://www.w3.org/2000/svg" xmlns:svg="http://www.w3.org/2000/svg">
  <namedview id="namedview2163" pagecolor="#ffffff" bordercolor="#666666" borderopacity="1.0" showgrid="false"></namedview>
  <defs id="defs2158"></defs>
  <g id="layer1" transform="translate(-79.338851,-48.395326)">
    <g id="g2084" transform="translate(11.960824,-47.158101)">
      <path d="m 70.514268,147.68912 c 0.164814,-2.72521 0.444832,-5.59964 0.839915,-8.62362 0.395495,-3.0244 0.906335,-6.03183 1.532103,-9.02271 0.625905,-3.02437 1.350881,-5.89884 2.174547,-8.62362 0.85658,-2.72521 1.779058,-5.13472 2.767507,-7.22838 1.021397,-2.12694 2.108694,-3.8051 3.261536,-5.03453 1.15316,-1.22978 2.372043,-1.84432 3.657183,-1.84432 1.3837,0 2.68499,0.63112 3.90384,1.89406 1.2193,1.26295 2.33937,2.99085 3.36063,5.18407 1.02125,2.16034 1.92719,4.61959 2.71819,7.37761 0.82338,2.7584 1.531687,5.6498 2.12464,8.67378 0.5934,3.02436 1.07117,6.01529 1.43344,8.97294 0.39536,2.95769 0.65856,5.71598 0.79057,8.27472 h -3.50876 c -0.13159,-2.45925 -0.37895,-5.06801 -0.74122,-7.82602 -0.36231,-2.75841 -0.80712,-5.51671 -1.33424,-8.27511 -0.52737,-2.75802 -1.12032,-5.38346 -1.77903,-7.87619 -0.65899,-2.4923 -1.36729,-4.70214 -2.12509,-6.62975 -0.75777,-1.92744 -1.54835,-3.4561 -2.37215,-4.58611 -0.79086,-1.12988 -1.61424,-1.69468 -2.47082,-1.69468 -0.82364,0 -1.64744,0.5648 -2.47125,1.69468 -0.790575,1.09678 -1.564887,2.60893 -2.322653,4.53637 -0.757802,1.92733 -1.482373,4.13744 -2.174417,6.62975 -0.658707,2.45925 -1.251691,5.068 -1.778776,7.82645 -0.527368,2.75798 -0.972221,5.53293 -1.334488,8.32442 -0.329636,2.75844 -0.560317,5.38387 -0.691917,7.87619 z m 15.813971,-4.98479 h -3.4593 v -22.13292 h 3.4593 v 22.13292" style="fill:#000000;fill-opacity:1;fill-rule:nonzero;stroke:none;stroke-width:0.0352778" id="path14"></path>
      <path fill="none" stroke="currentColor" stroke-linecap="round" stroke-linejoin="round" stroke-width="2.07687" d="M 123.98258,121.72801 H 105.9832 c -0.64381,0 -0.96502,0 -1.23226,0.0529 a 2.7691292,2.769187 0 0 0 -2.17652,2.17662 c -0.0524,0.26741 -0.0524,0.58846 -0.0524,1.23228 0,0.64384 0,0.96504 0.0524,1.23229 a 2.7691292,2.769187 0 0 0 2.17652,2.17656 c 0.2674,0.0529 0.58845,0.0529 1.23226,0.0529 h 17.99938 c 0.64381,0 0.96502,0 1.23227,-0.0529 a 2.7691292,2.769187 0 0 0 2.1765,-2.17656 c 0.0529,-0.2674 0.0529,-0.58845 0.0529,-1.23229 0,-0.64382 0,-0.96508 -0.0529,-1.23228 a 2.7691292,2.769187 0 0 0 -2.1765,-2.17662 c -0.26741,-0.0529 -0.58846,-0.0529 -1.23227,-0.0529 m 0,11.07675 H 105.9832 c -0.64381,0 -0.96502,0 -1.23226,0.0529 a 2.7691292,2.769187 0 0 0 -2.17652,2.17661 c -0.0524,0.26741 -0.0524,0.58842 -0.0524,1.23229 0,0.64384 0,0.96504 0.0524,1.23224 a 2.7691292,2.769187 0 0 0 2.17652,2.17661 c 0.2674,0.0529 0.58845,0.0529 1.23226,0.0529 h 17.99938 c 0.64381,0 0.96502,0 1.23227,-0.0529 a 2.7691292,2.769187 0 0 0 2.1765,-2.17661 c 0.0529,-0.2674 0.0529,-0.5884 0.0529,-1.23224 0,-0.64387 0,-0.96508 -0.0529,-1.23229 a 2.7691292,2.769187 0 0 0 -2.1765,-2.17661 c -0.26741,-0.0529 -0.58846,-0.0529 -1.23227,-0.0529 m -8.99971,11.07677 v 2.76916 m -9.69194,0 h 19.38393 m -17.99938,-10.38443 h 0.0157 m -0.0157,-11.07676 h 0.0157 m 4.13987,11.07676 h 0.0157 m -0.0157,-11.07676 h 0.0157" id="path1794"></path>
      <rect style="fill:none;stroke:#000000;stroke-width:1.99506;stroke-linecap:round;stroke-linejoin:round;stroke-dasharray:none;stroke-opacity:1" id="rect1921" width="62.00494" height="62.00494" x="68.375557" y="96.550957" ry="9.1073208"></rect>
    </g>
  </g>
</svg>