<?xml version="1.0"?>


<svg width="64mm" height="64mm" viewBox="0 0 64 64" version="1.1" id="svg2800" xmlns:inkscape="http://www.inkscape.org/namespaces/inkscape" xmlns:sodipodi="http://sodipodi.sourceforge.net/DTD/sodipodi-0.dtd" xmlns="http://www.w3.org/2000/svg" xmlns:svg="http://www.w3.org/2000/svg">
  <namedview id="namedview2802" pagecolor="#ffffff" bordercolor="#666666" borderopacity="1.0" showgrid="false"></namedview>
  <defs id="defs2797"></defs>
  <g id="layer1" transform="translate(-144.6962,-102.4742)">
    <g id="g2065" transform="translate(76.447563,-255.73213)">
      <path fill="currentColor" d="m 118.9881,389.3337 c 0,-0.56741 0.39058,-1.04381 0.86706,-1.35157 0.73794,-0.47624 1.2123,-1.22055 1.2123,-2.05641 0,-1.43471 -1.3973,-2.59915 -3.11901,-2.59915 -1.72163,0 -3.11892,1.16444 -3.11892,2.59915 0,0.85252 0.49274,1.6094 1.25379,2.08344 0.45738,0.28449 0.82549,0.73795 0.82549,1.27463 a 1.1997623,1.1997623 0 0 1 -1.25796,1.20397 q -2.32055,-0.12496 -4.60361,-0.37407 a 1.5594831,1.5594831 0 0 0 -1.72588,1.68422 q 0.20826,2.38287 0.27663,4.80738 a 1.2475865,1.2475865 0 0 1 -1.25175,1.27668 c -0.55719,0 -1.02919,-0.38431 -1.33073,-0.85669 -0.47232,-0.74266 -1.22055,-1.2226 -2.0627,-1.2226 -1.43471,0 -2.59907,1.39729 -2.59907,3.11892 0,1.72172 1.16436,3.11901 2.59907,3.11901 0.8401,0 1.58866,-0.47861 2.06482,-1.22267 0.29942,-0.47232 0.76938,-0.85669 1.33073,-0.85669 a 1.2475865,1.2475865 0 0 1 1.24963,1.27674 81.093123,81.093123 0 0 1 -0.48017,6.86169 1.5594831,1.5594831 0 0 0 1.37443,1.72375 q 2.5784,0.29078 5.19829,0.42438 a 1.1644141,1.1644141 0 0 0 1.21851,-1.16649 c 0,-0.56347 -0.38901,-1.0376 -0.8629,-1.3411 -0.73794,-0.47625 -1.21647,-1.22268 -1.21647,-2.06066 0,-1.43471 1.3973,-2.59915 3.11901,-2.59915 1.72163,0 3.11893,1.16444 3.11893,2.59915 0,0.83797 -0.47782,1.58448 -1.21639,2.05854 -0.47389,0.3057 -0.8629,0.77959 -0.8629,1.34322 v 0.2287 c 0,0.57839 0.46367,1.04796 1.03964,1.04796 q 3.73239,0 7.38572,-0.32063 a 1.5594831,1.5594831 0 0 0 1.41395,-1.37444 q 0.42202,-3.67414 0.52576,-7.43144 a 1.2413486,1.2413486 0 0 0 -1.24759,-1.27047 c -0.56112,0 -1.03548,0.38903 -1.33906,0.86291 -0.47625,0.7403 -1.22268,1.21639 -2.06058,1.21639 -1.43479,0 -2.59915,-1.3973 -2.59915,-3.11893 0,-1.72172 1.16436,-3.11901 2.59915,-3.11901 0.8379,0 1.58441,0.47861 2.05846,1.21646 0.3057,0.4739 0.77959,0.86291 1.34323,0.86291 a 1.2413486,1.2413486 0 0 0 1.24554,-1.26841 85.251748,85.251748 0 0 0 -0.27427,-4.91758 1.5594831,1.5594831 0 0 0 -1.69468,-1.42221 83.172432,83.172432 0 0 1 -7.35655,0.33086 1.0396555,1.0396555 0 0 1 -1.03965,-1.04593 z" id="path1860" style="stroke-width:2.07931"></path>
      <path d="m 71.384878,410.34205 c 0.164814,-2.72521 0.444832,-5.59964 0.839915,-8.62362 0.395495,-3.0244 0.906335,-6.03183 1.532103,-9.02271 0.625905,-3.02437 1.350881,-5.89884 2.174547,-8.62362 0.85658,-2.72521 1.779063,-5.13472 2.767503,-7.22838 1.0214,-2.12694 2.1087,-3.8051 3.26154,-5.03453 1.15316,-1.22978 2.37204,-1.84432 3.65718,-1.84432 1.3837,0 2.68499,0.63112 3.90384,1.89406 1.2193,1.26295 2.33937,2.99085 3.36063,5.18407 1.02125,2.16034 1.92719,4.61959 2.71819,7.37761 0.82338,2.7584 1.53169,5.6498 2.12464,8.67378 0.5934,3.02436 1.07117,6.01529 1.43344,8.97294 0.39536,2.95769 0.65856,5.71598 0.79057,8.27472 h -3.50876 c -0.13159,-2.45925 -0.37895,-5.06801 -0.74122,-7.82602 -0.36231,-2.75841 -0.80712,-5.51671 -1.33424,-8.27511 -0.52737,-2.75802 -1.12032,-5.38346 -1.77903,-7.87619 -0.65899,-2.4923 -1.36729,-4.70214 -2.12509,-6.62975 -0.75777,-1.92744 -1.54835,-3.4561 -2.37215,-4.58611 -0.79086,-1.12988 -1.61424,-1.69468 -2.47082,-1.69468 -0.82364,0 -1.64744,0.5648 -2.47125,1.69468 -0.79057,1.09678 -1.56488,2.60893 -2.32265,4.53637 -0.7578,1.92733 -1.48237,4.13744 -2.17442,6.62975 -0.6587,2.45925 -1.25169,5.068 -1.778773,7.82645 -0.527368,2.75798 -0.972221,5.53293 -1.334488,8.32442 -0.329636,2.75844 -0.560317,5.38387 -0.691917,7.87619 z m 15.813968,-4.98479 h -3.4593 v -22.13292 h 3.4593 v 22.13292" style="fill:#000000;fill-opacity:1;fill-rule:nonzero;stroke:none;stroke-width:0.0352778" id="path14-6"></path>
      <rect style="fill:none;stroke:#000000;stroke-width:1.99506;stroke-linecap:round;stroke-linejoin:round;stroke-dasharray:none;stroke-opacity:1" id="rect1921-9" width="62.00494" height="62.00494" x="69.24617" y="359.20386" ry="9.1073208"></rect>
    </g>
  </g>
</svg>